<?xml version="1.0" encoding="iso-8859-1"?>
<!-- Generator: Adobe Illustrator 17.1.0, SVG Export Plug-In . SVG Version: 6.00 Build 0)  -->
<!DOCTYPE svg PUBLIC "-//W3C//DTD SVG 1.1//EN" "http://www.w3.org/Graphics/SVG/1.1/DTD/svg11.dtd">
<svg version="1.1" id="Capa_1" xmlns="http://www.w3.org/2000/svg" xmlns:xlink="http://www.w3.org/1999/xlink" x="0px" y="0px"
	 viewBox="0 0 196.667 196.667" style="enable-background:new 0 0 196.667 196.667;" xml:space="preserve">
<path d="M98.334,0C44.112,0,0,44.113,0,98.333s44.112,98.333,98.334,98.333c54.221,0,98.333-44.112,98.333-98.333
	S152.555,0,98.334,0z M122.112,73.744c0.317-0.119,5.133-2.026,8.073-8.642c3.47-7.807,3.568-14.114,3.569-14.178
	c0.026-2.744,2.259-4.965,5-4.965c0.008,0,0.016,0,0.023,0c2.752,0.014,4.977,2.236,4.977,4.988c0,0.337-0.051,8.359-4.431,18.215
	c-4.759,10.706-13.058,13.736-13.988,14.047c-0.524,0.175-1.058,0.258-1.582,0.258c-2.093,0-4.044-1.324-4.742-3.42
	C118.145,77.449,119.532,74.641,122.112,73.744z M127.799,132.74l-8,11c-0.979,1.346-2.503,2.06-4.048,2.06
	c-1.021,0-2.049-0.311-2.937-0.956c-2.233-1.624-2.728-4.752-1.104-6.984l8-11c1.625-2.235,4.753-2.727,6.984-1.104
	C128.929,127.379,129.423,130.507,127.799,132.74z M107.53,26.169c2.374-1.411,5.442-0.634,6.854,1.739s0.634,5.441-1.739,6.854
	c-7.487,4.456-6.358,15.465-6.345,15.574c0.337,2.741-1.612,5.236-4.353,5.573c-0.207,0.025-0.413,0.038-0.616,0.038
	c-2.489,0-4.646-1.857-4.957-4.391C96.287,50.844,94.378,33.999,107.53,26.169z M47.113,128.933
	c-0.98,1.329-2.495,2.033-4.029,2.033c-1.03,0-2.069-0.316-2.963-0.975c-0.438-0.323-10.756-8.116-12.995-26.143
	c-0.341-2.74,1.605-5.237,4.346-5.578c2.743-0.344,5.237,1.605,5.578,4.346c1.688,13.587,8.932,19.271,9.005,19.324
	C48.277,123.58,48.751,126.709,47.113,128.933z M53.623,84.001c-0.976,0.977-2.256,1.465-3.535,1.465s-2.56-0.488-3.535-1.465l-7-7
	c-1.953-1.952-1.953-5.118,0-7.07c1.951-1.953,5.119-1.953,7.07,0l7,7C55.576,78.883,55.576,82.049,53.623,84.001z M62.65,68.369
	c-1.102-3.313-4.452-13.393,0.502-25.425c1.577-3.83,5.959-5.657,9.791-4.08c3.83,1.577,5.656,5.961,4.08,9.791
	c-2.833,6.879-0.945,12.558-0.139,14.982c0.361,1.088,0.703,2.115,0.703,3.495c0,4.143-3.357,7.5-7.5,7.5
	c-3.63,0-6.657-2.579-7.351-6.004C62.711,68.549,62.682,68.462,62.65,68.369z M83.504,161.686c-0.974,1.378-2.519,2.113-4.086,2.113
	c-0.998,0-2.006-0.298-2.883-0.918l-10.37-7.333c-2.255-1.594-2.79-4.714-1.195-6.969c1.594-2.255,4.715-2.789,6.969-1.195
	l10.37,7.333C84.563,156.311,85.099,159.431,83.504,161.686z M80.316,138.051c-0.303,0.056-0.604,0.082-0.9,0.082
	c-2.37,0-4.475-1.692-4.913-4.106l-4-22c-0.494-2.717,1.308-5.32,4.024-5.813c2.718-0.501,5.32,1.308,5.813,4.024l4,22
	C84.835,134.955,83.033,137.558,80.316,138.051z M87.755,96.799H77.422c-2.209,0-4-1.791-4-4s1.791-4,4-4h10.333
	c2.209,0,4,1.791,4,4S89.964,96.799,87.755,96.799z M107.561,130.036l-5.666,11.333c-0.876,1.752-2.643,2.765-4.477,2.765
	c-0.751,0-1.514-0.17-2.232-0.528c-2.47-1.235-3.471-4.238-2.236-6.709l5.666-11.333c1.234-2.469,4.235-3.47,6.709-2.236
	C107.794,124.562,108.795,127.565,107.561,130.036z M106.823,116.1c-3.479-0.883-5.585-4.42-4.702-7.899l1.666-6.566
	c0.883-3.479,4.425-5.58,7.899-4.702c3.479,0.883,5.585,4.42,4.702,7.899l-1.666,6.566c-0.747,2.943-3.393,4.903-6.296,4.903
	C107.897,116.301,107.359,116.236,106.823,116.1z M129.158,164.688l-13.482,1.801c-0.225,0.03-0.448,0.045-0.668,0.045
	c-2.468,0-4.614-1.826-4.95-4.339c-0.365-2.737,1.557-5.253,4.294-5.618l13.482-1.801c2.748-0.37,5.252,1.558,5.618,4.294
	C133.817,161.807,131.896,164.323,129.158,164.688z M144.178,141.75c-0.265,0.042-0.528,0.063-0.788,0.063
	c-2.417,0-4.543-1.756-4.933-4.219l-1.06-6.69c-0.432-2.728,1.429-5.289,4.156-5.721c2.729-0.435,5.289,1.429,5.721,4.156l1.06,6.69
	C148.766,138.756,146.905,141.318,144.178,141.75z M162.169,117.305c0.864,2.622-0.558,5.449-3.179,6.315
	c-0.521,0.172-1.051,0.254-1.57,0.254c-2.097,0-4.049-1.328-4.744-3.428c-0.45-1.358-4.352-13.517-2.847-22.171
	c0.516-2.97,1.09-5.401,1.551-7.354c0.729-3.085,1.21-5.123,1.056-7.222c-0.202-2.754,1.866-5.15,4.62-5.353
	c2.784-0.225,5.15,1.866,5.353,4.62c0.267,3.632-0.457,6.699-1.296,10.251c-0.452,1.92-0.966,4.096-1.432,6.771
	C158.769,105.236,161.168,114.268,162.169,117.305z"/>
<g>
</g>
<g>
</g>
<g>
</g>
<g>
</g>
<g>
</g>
<g>
</g>
<g>
</g>
<g>
</g>
<g>
</g>
<g>
</g>
<g>
</g>
<g>
</g>
<g>
</g>
<g>
</g>
<g>
</g>
</svg>
