<?xml version="1.0" encoding="iso-8859-1"?>
<!-- Generator: Adobe Illustrator 19.1.0, SVG Export Plug-In . SVG Version: 6.00 Build 0)  -->
<svg version="1.1" id="Capa_1" xmlns="http://www.w3.org/2000/svg" xmlns:xlink="http://www.w3.org/1999/xlink" x="0px" y="0px"
	 viewBox="0 0 1125.628 1125.628" style="enable-background:new 0 0 1125.628 1125.628;" xml:space="preserve">
<g>
	<path d="M562.812,0.002C252.476,0.002,0,252.478,0,562.814s252.476,562.812,562.812,562.812
		c310.34,0,562.816-252.476,562.816-562.812S873.152,0.002,562.812,0.002z M562.813,299.571c50.393,0,92.193,36.693,100.2,84.813
		c-40.736,10.563-75.94,34.999-100.199,67.989c-24.26-32.99-59.465-57.427-100.201-67.99
		C470.62,336.264,512.421,299.571,562.813,299.571z M271.98,823.483c-54.183,0-98.107-43.924-98.107-98.107
		c0-54.184,43.924-98.108,98.107-98.108c54.184,0,98.108,43.924,98.108,98.108C370.088,779.559,326.164,823.483,271.98,823.483z
		 M417.396,618.736c-24.21-32.924-59.322-57.324-99.952-67.923c4.177-51.562,47.315-92.112,99.952-92.112
		s95.775,40.55,99.952,92.111C476.719,561.411,441.606,585.812,417.396,618.736z M562.813,823.753
		c-54.332,0-98.377-44.045-98.377-98.377c0-54.333,44.045-98.377,98.377-98.377s98.377,44.045,98.377,98.377
		C661.19,779.708,617.145,823.753,562.813,823.753z M708.229,618.733c-24.21-32.923-59.322-57.322-99.953-67.92
		c4.178-51.562,47.315-92.112,99.953-92.112c52.637,0,95.775,40.55,99.952,92.112C767.551,561.411,732.439,585.811,708.229,618.733z
		 M853.646,824.219c-54.59,0-98.844-44.253-98.844-98.843c0-54.59,44.254-98.844,98.844-98.844c54.59,0,98.843,44.254,98.843,98.844
		C952.489,779.965,908.235,824.219,853.646,824.219z"/>
</g>
<g>
</g>
<g>
</g>
<g>
</g>
<g>
</g>
<g>
</g>
<g>
</g>
<g>
</g>
<g>
</g>
<g>
</g>
<g>
</g>
<g>
</g>
<g>
</g>
<g>
</g>
<g>
</g>
<g>
</g>
</svg>
