<?xml version="1.0" encoding="iso-8859-1"?>
<!-- Generator: Adobe Illustrator 18.0.0, SVG Export Plug-In . SVG Version: 6.00 Build 0)  -->
<!DOCTYPE svg PUBLIC "-//W3C//DTD SVG 1.1//EN" "http://www.w3.org/Graphics/SVG/1.1/DTD/svg11.dtd">
<svg version="1.1" id="Capa_1" xmlns="http://www.w3.org/2000/svg" xmlns:xlink="http://www.w3.org/1999/xlink" x="0px" y="0px"
	 viewBox="0 0 297 297" style="enable-background:new 0 0 297 297;" xml:space="preserve">
<g>
	<path d="M280.321,6.655H145.173c-5.536,0-10.024,4.488-10.024,10.024v135.148c0,5.536,4.488,10.024,10.024,10.024h6.869v17.108
		c0,16.772-13.646,30.418-30.418,30.418h-20.478c-16.772,0-30.418-13.646-30.418-30.418V99.93
		c23.041-4.662,40.442-25.068,40.442-49.463C111.171,22.639,88.532,0,60.704,0C32.878,0,10.239,22.639,10.239,50.467
		c0,24.396,17.401,44.801,40.441,49.463v79.03c0,27.827,22.639,50.467,50.467,50.467h20.478c27.827,0,50.467-22.639,50.467-50.467
		v-17.108h13.739v67.789c0,16.772-13.646,30.417-30.418,30.417H85.792c-3.876-9.878-13.498-16.894-24.734-16.894H43.458
		c-11.236,0-20.858,7.016-24.734,16.894h-2.045c-5.536,0-10.024,4.488-10.024,10.024c0,5.536,4.488,10.024,10.024,10.024h2.045
		C22.6,289.984,32.222,297,43.458,297h17.599c11.236,0,20.858-7.016,24.734-16.894h69.619c27.827,0,50.467-22.639,50.467-50.466
		v-67.789h74.443c5.536,0,10.024-4.488,10.024-10.024V16.679C290.345,11.143,285.857,6.655,280.321,6.655z M30.875,56.411
		c1.262-0.194,2.453-0.786,3.364-1.689c1.123-1.123,1.764-2.667,1.764-4.251c0-1.594-0.641-3.138-1.764-4.26
		c-0.903-0.904-2.1-1.49-3.365-1.68c2.769-13.94,15.09-24.482,29.831-24.482c14.741,0,27.063,10.542,29.832,24.481
		c-1.264,0.19-2.457,0.776-3.369,1.681c-1.122,1.123-1.764,2.667-1.764,4.26c0,1.584,0.642,3.128,1.764,4.251
		c0.912,0.904,2.104,1.496,3.368,1.689c-2.39,12.014-11.877,21.498-23.891,23.887c-0.192-1.265-0.779-2.461-1.69-3.373
		c-1.113-1.112-2.667-1.754-4.251-1.754c-1.584,0-3.138,0.642-4.251,1.754c-0.911,0.911-1.498,2.108-1.69,3.372
		C42.749,77.909,33.265,68.424,30.875,56.411z M67.574,270.435c0,3.593-2.923,6.516-6.516,6.516H43.458
		c-3.593,0-6.516-2.923-6.516-6.516v-0.707c0-3.593,2.923-6.516,6.516-6.516h17.599c3.593,0,6.516,2.923,6.516,6.516V270.435z
		 M155.197,26.704h13.739v115.099h-13.739V26.704z M270.296,141.803h-81.312V26.704h81.312V141.803z"/>
	<path d="M60.704,56.481c3.322,0,6.015-2.693,6.015-6.015V33.573c0-3.322-2.693-6.015-6.015-6.015c-3.322,0-6.015,2.693-6.015,6.015
		v16.894C54.69,53.788,57.383,56.481,60.704,56.481z"/>
</g>
<g>
</g>
<g>
</g>
<g>
</g>
<g>
</g>
<g>
</g>
<g>
</g>
<g>
</g>
<g>
</g>
<g>
</g>
<g>
</g>
<g>
</g>
<g>
</g>
<g>
</g>
<g>
</g>
<g>
</g>
</svg>
